<svg xmlns="http://www.w3.org/2000/svg" width="114" height="32" viewBox="0 0 114 32" data-testid="header-hero-logo" class=""><g clip-path="url(#LogoSunrise_default_svg__a)"><path fill="#E32851" d="M38.637 7.434h-4.913a.255.255 0 00-.255.255v15.907c0 .14.114.255.255.255h4.913c.14 0 .255-.114.255-.255V7.689a.255.255 0 00-.255-.255z"></path><path fill="#FF932C" d="M52.833 7.6L49.6 16.21a.057.057 0 01-.107 0L46.231 7.6a.255.255 0 00-.239-.165h-5.37a.255.255 0 00-.237.351l6.46 15.907c.039.096.133.16.236.16h4.724a.255.255 0 00.237-.16L58.53 7.786a.255.255 0 00-.237-.352h-5.222a.255.255 0 00-.239.166z"></path><path fill="#0088D9" d="M104.344 7.185c-5.126 0-8.86 3.615-8.86 8.476 0 4.86 3.734 8.475 8.86 8.475 5.068 0 8.861-3.645 8.861-8.475 0-4.86-3.764-8.476-8.861-8.476zm0 12.328c-2.015 0-3.348-1.541-3.348-3.853 0-2.31 1.333-3.852 3.348-3.852 1.986 0 3.349 1.54 3.349 3.853 0 2.281-1.363 3.852-3.349 3.852z"></path><path fill="#E32851" d="M31.673 7.355a2.833 2.833 0 00-.514-.121c-.314-.05-3.647-.424-5.501 2.063-.033.044-.103.02-.103-.034V7.689a.255.255 0 00-.255-.255h-4.913a.255.255 0 00-.255.255v15.907c0 .14.114.255.255.255H25.3a.255.255 0 00.255-.255V17.69c0-4.416 2.044-5.514 4.06-5.514.237 0 .926-.001 1.9.268a.255.255 0 00.322-.245V7.594a.253.253 0 00-.164-.239zM36.18 0c-1.713 0-3.102 1.339-3.102 2.99 0 1.651 1.39 2.99 3.103 2.99 1.713 0 3.102-1.339 3.102-2.99 0-1.651-1.39-2.99-3.102-2.99z"></path><path fill="#FF932C" d="M75.341 7.434H70.43a.255.255 0 00-.255.255v1.565c0 .06-.083.08-.109.024-1.774-3.717-12.282-2.994-12.282 6.364 0 8.748 8.978 10.306 12.29 6.645.036-.04.1-.015.1.038v1.27c0 .142.115.256.256.256h4.912a.255.255 0 00.256-.255V7.689a.255.255 0 00-.255-.255zM66.77 19.495c-2.164 0-3.672-1.508-3.672-3.836s1.508-3.869 3.672-3.869c2.197 0 3.672 1.574 3.672 3.87 0 2.294-1.475 3.835-3.672 3.835z"></path><path fill="#0088D9" d="M93.893 7.434h-4.912a.255.255 0 00-.255.255v1.564c0 .062-.083.08-.11.025-1.78-3.764-11.567-2.82-11.567 5.89 0 8.54 8.92 9.243 11.58 6.759a.057.057 0 01.096.042v.769c-.068 3.629-4.614 5.2-6.924 2.443a.255.255 0 00-.334-.05l-4.14 2.677a.257.257 0 00-.066.368c5.283 7.219 16.802 3.548 16.887-5.422V7.69a.255.255 0 00-.255-.255zm-8.101 11.201c-1.956 0-3.32-1.363-3.32-3.466 0-2.104 1.364-3.497 3.32-3.497 1.985 0 3.318 1.422 3.318 3.497 0 2.074-1.333 3.466-3.318 3.466z"></path><path fill="#E32851" d="M18.424 14.867h-4.92a.26.26 0 00-.254.237 3.92 3.92 0 01-3.907 3.61c-2.472 0-3.472-2.1-3.472-2.1a3.923 3.923 0 01-.448-1.749c0-.02.011-.04.03-.05l1.407-.777 8.894-4.919a.425.425 0 00.22-.372V3.46a.255.255 0 00-.38-.224L5.509 8.814a.057.057 0 01-.086-.05V.452a.255.255 0 00-.394-.214L.194 3.368A.425.425 0 000 3.727v11.14a9.343 9.343 0 0018.68.268.257.257 0 00-.256-.268z"></path></g><defs><clipPath id="LogoSunrise_default_svg__a"><path fill="#fff" d="M0 0h113.205v32H0z"></path></clipPath></defs></svg>